<svg width="17" height="22" fill="none" xmlns="http://www.w3.org/2000/svg"><path d="M4.987 4.01V5.7s3.657 1.04 6.932-.081V4.01" stroke="#000" stroke-width=".646" stroke-linecap="round" stroke-linejoin="round"/><path d="M13.806 2.756L8.453 1 3.03 2.756l5.424 1.705 4.292-1.337M13.806 2.756V4.82M13.156 5.44c0-.343.29-.62.65-.62.359 0 .65.277.65.62M11.034 19.509h4.943l-.584-4.37a2.73 2.73 0 0 0-.987-1.575c-.325-.255-.654-.419-.969-.485l-2.496-.692a.555.555 0 0 1-.153-.068.516.516 0 0 1-.236-.37l-.115-.942c.699-.518 1.216-1.292 1.464-2.196.446-.038.788-.51.788-1.108 0-.551-.29-.997-.688-1.092M4.955 6.617c-.386.105-.666.545-.666 1.086 0 .597.34 1.07.785 1.108.25.903.767 1.677 1.466 2.196l-.115.942a.516.516 0 0 1-.236.37.559.559 0 0 1-.152.068l-2.489.69c-.322.067-.652.232-.975.487-.51.402-.861.961-.989 1.575L1 19.51h5.033" stroke="#000" stroke-width=".646" stroke-linecap="round" stroke-linejoin="round"/><path d="M10.525 11.729l-2.036 1.74-2.037-1.74M7.697 15.2l-.772 4.309 1.564 1.49" stroke="#000" stroke-width=".646" stroke-linecap="round" stroke-linejoin="round"/><path d="M9.28 15.2l.772 4.309-1.563 1.49" stroke="#000" stroke-width=".646" stroke-linecap="round" stroke-linejoin="round"/><path fill-rule="evenodd" clip-rule="evenodd" d="M4.173 15.432c.379-.471 1.051-.595 1.63-.812a4.343 4.343 0 0 0 1.447-.897l-.614-.524c-.1.052-.202.097-.311.128l-2.556.705c-.16.034-.349.133-.543.287-.32.251-.542.599-.63.981l-.431 3.23h1.399c.055-.677.133-1.352.235-2.023.058-.378.13-.772.374-1.075zM12.905 15.432c-.378-.471-1.05-.595-1.63-.812a4.34 4.34 0 0 1-1.446-.897l.614-.524c.1.052.202.097.31.128l2.556.705c.161.034.35.133.544.287.32.251.542.599.629.981l.432 3.23h-1.4a29.202 29.202 0 0 0-.235-2.023c-.058-.378-.13-.772-.374-1.075z" fill="#B40000"/></svg>