<svg width="26" height="22" fill="none" xmlns="http://www.w3.org/2000/svg"><path d="M25.515 7.122v12.68a1.2 1.2 0 0 1-1.2 1.198H2.2c-.663 0-1.2-.536-1.2-1.199V7.123M5.379 3.245c-.056.139-.089.29-.089.452 0 .652.503 1.18 1.124 1.18.62 0 1.123-.528 1.123-1.18 0-.161-.032-.313-.089-.452M6.414 3.653V1M21.34 3.245c.056.139.09.29.09.452 0 .652-.504 1.18-1.125 1.18-.62 0-1.123-.528-1.123-1.18 0-.161.033-.313.089-.452M20.305 3.653V1M18.978 1.714H7.538" stroke="#000" stroke-width=".6" stroke-linecap="round" stroke-linejoin="round"/><path d="M4.99 1.816H2.2c-.663 0-1.2.534-1.2 1.192v4.114h24.515V3.008c0-.658-.537-1.192-1.2-1.192h-2.79M8.048 9.776v2.449M11.52 9.776v2.449M15.198 9.776v2.449M18.671 9.776v2.449M8.048 15.898v2.449M11.52 15.898v2.449M15.198 15.898v2.449M18.671 15.898v2.449M6.107 13.96h14.505M17.548 3.755H9.172" stroke="#000" stroke-width=".6" stroke-linecap="round" stroke-linejoin="round"/><path fill-rule="evenodd" clip-rule="evenodd" d="M5.699 19.776c-.981-1.44-1.583-3.131-1.68-4.862-.049-.861.02-1.726-.026-2.588-.045-.861-.216-1.742-.695-2.464a3.71 3.71 0 0 0-.868-.903v10.817H5.7z" fill="#B40000"/></svg>