<svg width="20" height="22" fill="none" xmlns="http://www.w3.org/2000/svg"><path d="M6.402 12.25l6.224 4.274M6.402 9.492l6.976-3.53" stroke="#fff" stroke-width=".6" stroke-linecap="round" stroke-linejoin="round"/><path clip-rule="evenodd" d="M1.64 10.42c.291-1.397 1.637-2.288 3.007-1.991 1.37.296 2.244 1.669 1.953 3.065-.291 1.397-1.638 2.288-3.007 1.99-1.37-.296-2.244-1.669-1.953-3.065z" stroke="#fff" stroke-width=".6" stroke-linecap="round" stroke-linejoin="round"/><path fill-rule="evenodd" clip-rule="evenodd" d="M5.305 12.325c.055-.105.106-.212.151-.322.232-.57.302-1.231.079-1.8-.223-.57-.778-1.014-1.373-.985-.14.006-.278.038-.416.071-.116 1.252.499 2.445 1.559 3.036z" fill="#B40000"/><path clip-rule="evenodd" d="M12.289 17.312c.29-1.397 1.637-2.288 3.007-1.99 1.37.296 2.243 1.669 1.952 3.065-.291 1.396-1.638 2.288-3.007 1.99-1.37-.296-2.244-1.668-1.952-3.065zM13.86 6.558a2.627 2.627 0 0 1-.188-3.66 2.51 2.51 0 0 1 3.593-.192 2.627 2.627 0 0 1 .188 3.66 2.51 2.51 0 0 1-3.593.192z" stroke="#fff" stroke-width=".6" stroke-linecap="round" stroke-linejoin="round"/></svg>