<svg width="17" height="22" fill="none" xmlns="http://www.w3.org/2000/svg"><path clip-rule="evenodd" d="M8.463 21l-4.323-.782v-4.882l4.323.781V21z" stroke="#000" stroke-width=".6" stroke-linecap="round" stroke-linejoin="round"/><path fill-rule="evenodd" clip-rule="evenodd" d="M4.991 19.523v-3.184l2.62.474-.05.015a3.715 3.715 0 0 0-2.426 2.294l-.144.4z" fill="#B40000"/><path d="M8.463 16.117l4.323-.781v4.882L8.463 21M9.562 17.561l2.215-.37M9.562 18.512l2.215-.37" stroke="#000" stroke-width=".6" stroke-linecap="round" stroke-linejoin="round"/><path d="M13.638 19.315h2.288l-.582-4.48a2.812 2.812 0 0 0-.984-1.615c-.324-.261-.651-.43-.965-.497l-2.489-.71a.542.542 0 0 1-.387-.449l-.115-.966c.697-.531 1.213-1.325 1.46-2.251.444-.04.785-.524.785-1.136 0-.566-.29-1.023-.685-1.12M4.941 6.096c-.385.108-.664.56-.664 1.115 0 .611.34 1.095.783 1.135.249.926.764 1.72 1.46 2.252l-.113.966a.53.53 0 0 1-.387.45l-2.48.706c-.322.07-.65.238-.973.5a2.803 2.803 0 0 0-.985 1.615L1 19.315h2.289M5.37 3.994c-.525.754-.429 2.103-.429 2.103M11.963 6.09s.04-.77-.224-1.64" stroke="#000" stroke-width=".6" stroke-linecap="round" stroke-linejoin="round"/><path clip-rule="evenodd" d="M7.603 7.188h-1.56c-.11 0-.2-.088-.2-.196v-.84c0-.108.09-.196.2-.196h1.56c.11 0 .2.088.2.196v.84c0 .108-.09.196-.2.196zM10.882 7.188h-1.56c-.11 0-.2-.088-.2-.196v-.84c0-.108.09-.196.2-.196h1.56c.11 0 .199.088.199.196v.84c0 .108-.09.196-.2.196z" stroke="#000" stroke-width=".6" stroke-linecap="round" stroke-linejoin="round"/><path d="M7.802 6.41h1.32M4.941 6.096l.903.257M11.081 6.353l.882-.263M10.493 11.338l-2.03 1.784-2.03-1.784M5.37 3.994c.013-1.53 1.328-2.404 2.557-2.563.302-.04 1.311-.155 2.003-.431l.007.01a.51.51 0 0 1 .041.472c.743.196 1.354.105 1.988-.155.007.444.02 1.338-.162 1.745-.183.407-.52.763-.953.893-.278.083-.577.07-.866.033-.58-.076-1.144-.246-1.72-.355-.575-.108-1.18-.155-1.74.014" stroke="#000" stroke-width=".6" stroke-linecap="round" stroke-linejoin="round"/><path d="M11.007 2.463a.897.897 0 0 1-.627.602c-.295.076-.607 0-.902-.077" stroke="#000" stroke-width=".6" stroke-linecap="round" stroke-linejoin="round"/></svg>