<svg width="19" height="22" fill="none" xmlns="http://www.w3.org/2000/svg"><path d="M14.255 12.143h4.253M5.674 16.542H3.172c-1.2 0-2.172-.985-2.172-2.2 0-1.215.972-2.2 2.172-2.2H6.41M18.508 16.542h-8.506M10.002 20.918h-6.83c-1.2 0-2.172-.985-2.172-2.2 0-.522.18-1.001.48-1.378M18.508 20.918h-8.506M6.773 14.342v4.787l1.13-1.144" stroke="#000" stroke-width=".64" stroke-linecap="round" stroke-linejoin="round"/><path d="M9.032 14.342v4.787l-1.13-1.144M3.083 14.342H16.92" stroke="#000" stroke-width=".64" stroke-linecap="round" stroke-linejoin="round"/><path clip-rule="evenodd" d="M10.551 12.153c.069.028.138.054.206.078.941.324 1.97.024 2.619-.74 1.011-1.19 1.318-2.546 1.402-3.436a4.274 4.274 0 0 0-.219-1.867c-.796-2.184-2.846-1.87-3.8-1.585a1.757 1.757 0 0 1-1.006 0c-.954-.285-3.005-.6-3.8 1.585a4.285 4.285 0 0 0-.218 1.875c.085.893.394 2.25 1.41 3.44a2.405 2.405 0 0 0 2.62.724c.063-.022.125-.045.187-.07a.796.796 0 0 1 .6-.004z" stroke="#000" stroke-width=".64" stroke-linecap="round" stroke-linejoin="round"/><path d="M10.256 2.895S9.488.409 6.812 1.132c0 0-.004 1.031.89 1.704.348.261.844.468 1.519.54M10.256 3.88s-.138-2.224 1.19-2.88" stroke="#000" stroke-width=".64" stroke-linecap="round" stroke-linejoin="round"/><path fill-rule="evenodd" clip-rule="evenodd" d="M13.65 6.528c-.289-.792-.782-1.145-1.598-1.145-.396 0-.774.088-1.02.161a2.718 2.718 0 0 1-1.552 0 3.693 3.693 0 0 0-1.02-.161c-.063 0-.123.003-.181.007a4.64 4.64 0 0 0 2.263 1.314c.357.086.738.134 1.037.35.485.35.605 1.027.591 1.63-.021.94-.28 1.869-.73 2.69a1.466 1.466 0 0 0 1.202-.523c.835-.984 1.098-2.115 1.17-2.89a3.266 3.266 0 0 0-.162-1.433z" fill="#B40000"/></svg>