<svg width="17" height="22" fill="none" xmlns="http://www.w3.org/2000/svg"><path d="M7.236 10.48c0 .685.566 1.24 1.264 1.24.698 0 1.264-.555 1.264-1.24 0-.685-.518-1.001-1.264-1.24-.664-.212-1.264-.555-1.264-1.24 0-.685.566-1.24 1.264-1.24.698 0 1.264.555 1.264 1.24M8.5 6.12v.64M8.5 11.72v.64M2.854 1.8v4.32l1.088-.656 1.103.656V1.8" stroke="#000" stroke-width=".64" stroke-linecap="round" stroke-linejoin="round"/><path clip-rule="evenodd" d="M2.321 1C1.591 1 1 1.557 1 2.244V19.88c0-.687.591-1.244 1.321-1.244H16V1H2.321z" stroke="#000" stroke-width=".64" stroke-linecap="round" stroke-linejoin="round"/><path d="M1 19.846v0C1 20.483 1.544 21 2.215 21H14.82v-2.4M5.55 13.88h5.73M5.55 15.8h5.73" stroke="#000" stroke-width=".64" stroke-linecap="round" stroke-linejoin="round"/><path fill-rule="evenodd" clip-rule="evenodd" d="M14.82 11.56v-8.8H9.764c1.992 1.192 3.44 3.065 4.054 5.242l1.002 3.558z" fill="#B40000"/></svg>