<svg width="22" height="22" fill="none" xmlns="http://www.w3.org/2000/svg"><path d="M17.333 5.923c1.491 1.68 2.102 3.635 2.102 5.86a9.217 9.217 0 1 1-9.218-9.218c2.165 0 4.226.68 5.785 2.043" stroke="#000" stroke-width=".64" stroke-linecap="round" stroke-linejoin="round"/><path d="M14.492 8.792c.543.527.943 1.899.943 2.99a5.217 5.217 0 1 1-5.218-5.217c1.05 0 2.189.298 2.947.912M18.304 3.609v-1.74M17.26 4.478V2.74M19.174 2.74V1M18.391 3.696h1.74M17.522 4.565h1.739M19.26 2.652H21" stroke="#000" stroke-width=".64" stroke-linecap="round" stroke-linejoin="round"/><path d="M11.969 11.791c0 .956-.782 1.73-1.745 1.73a1.738 1.738 0 0 1-1.746-1.73c0-.955.782-1.73 1.746-1.73l.087.003-.087 1.727L19.26 2.74" stroke="#000" stroke-width=".64" stroke-linecap="round" stroke-linejoin="round"/><path fill-rule="evenodd" clip-rule="evenodd" d="M2.043 11.783c0 4.507 3.67 8.173 8.18 8.173 3.916 0 7.196-2.763 7.994-6.44H16.25a6.281 6.281 0 0 1-6.026 4.533c-3.458 0-6.272-2.811-6.272-6.266 0-3.456 2.814-6.267 6.272-6.267V3.609c-4.51 0-8.18 3.666-8.18 8.174z" fill="#B40000"/></svg>